<svg id="svg" version="1.1" xmlns="http://www.w3.org/2000/svg" xmlns:xlink="http://www.w3.org/1999/xlink" width="400"
     height="400" viewBox="0, 0, 400,400">
    <g id="svgg">
        <path id="dark-blue"
              d="M136.200 98.754 C 111.798 110.670,90.028 136.623,84.005 160.981 C 82.369 167.597,82.640 167.296,77.505 168.193 C 62.954 170.734,53.144 184.135,54.839 199.155 C 57.174 219.852,80.253 230.824,96.756 219.082 C 97.770 218.361,99.441 217.283,100.468 216.687 C 102.508 215.504,104.829 212.354,107.310 207.400 C 109.530 202.967,109.414 203.021,116.808 202.873 C 122.152 202.766,123.342 202.852,124.468 203.428 C 126.152 204.289,129.936 207.804,166.138 242.125 C 179.706 254.988,188.088 262.400,189.068 262.400 C 190.604 262.400,190.800 261.039,190.800 250.382 C 190.800 237.678,191.185 238.692,183.854 232.113 C 176.987 225.951,169.497 218.988,159.400 209.382 C 140.558 191.455,132.795 184.659,130.402 183.994 C 129.631 183.780,124.257 183.603,118.460 183.602 L 107.920 183.600 106.660 182.297 C 105.967 181.581,104.770 180.122,104.000 179.055 C 103.230 177.988,102.195 176.568,101.700 175.899 C 100.329 174.045,100.488 173.121,104.084 162.000 C 108.851 147.260,122.274 130.743,138.000 120.265 C 140.530 118.579,142.933 116.972,143.340 116.693 C 144.148 116.139,144.655 98.656,143.908 97.100 C 143.309 95.852,141.229 96.298,136.200 98.754 M257.680 96.880 C 256.981 97.579,257.003 115.178,257.704 116.137 C 257.982 116.517,259.244 117.406,260.510 118.113 C 273.612 125.440,289.466 143.245,294.891 156.726 C 300.535 170.752,301.216 174.909,298.570 179.196 C 295.831 183.634,296.714 183.356,284.268 183.706 C 271.484 184.066,270.470 184.273,267.000 187.233 C 264.967 188.967,252.851 200.533,244.199 209.000 C 242.850 210.320,236.007 216.800,228.993 223.400 C 221.979 230.000,215.157 236.420,213.832 237.666 L 211.424 239.932 211.138 247.066 C 210.781 255.964,211.125 261.543,212.067 262.135 C 213.299 262.909,213.391 262.826,245.873 231.810 C 254.853 223.236,265.080 213.417,268.600 209.990 C 276.642 202.162,275.901 202.498,285.454 202.333 C 294.294 202.179,294.440 202.230,295.184 205.698 C 295.690 208.059,299.152 214.000,300.717 215.193 C 318.708 228.914,337.965 225.780,346.653 207.717 C 354.787 190.806,341.064 168.000,322.755 168.000 C 319.324 168.000,319.221 167.845,316.800 159.000 C 310.292 135.227,289.678 111.284,265.106 98.956 C 259.988 96.388,258.568 95.992,257.680 96.880 M95.800 240.362 C 90.873 242.655,88.646 248.150,90.822 252.646 C 91.871 254.812,94.459 257.439,117.798 280.023 C 151.114 312.261,177.205 338.081,177.450 339.055 C 177.611 339.699,177.052 341.332,175.655 344.295 C 163.578 369.914,188.356 395.322,213.509 383.113 C 227.792 376.181,233.739 357.063,225.722 343.859 C 223.235 339.764,222.384 341.028,236.800 327.402 C 243.070 321.476,250.900 313.904,254.200 310.576 C 257.500 307.247,266.140 298.782,273.400 291.764 C 280.660 284.747,289.570 276.122,293.200 272.599 C 296.830 269.076,302.184 263.922,305.098 261.146 C 309.605 256.851,310.584 255.697,311.655 253.407 C 314.984 246.294,311.285 240.247,303.583 240.213 C 298.265 240.190,301.013 237.767,256.200 282.001 C 231.032 306.844,219.487 318.119,214.118 323.100 L 208.836 328.000 202.392 328.000 C 194.588 328.000,196.088 328.816,186.744 319.494 C 175.649 308.426,158.713 291.901,142.373 276.200 C 134.588 268.720,123.894 258.370,118.608 253.200 C 104.917 239.810,101.328 237.790,95.800 240.362 "
              stroke="none" fill="#152E38" fill-rule="evenodd"></path>
        <path id="light-blue"
              d="M198.839 20.292 C 198.090 20.659,195.660 22.679,193.439 24.782 C 191.217 26.884,184.382 33.268,178.250 38.968 C 155.388 60.216,147.241 72.091,144.828 87.678 C 143.804 94.292,144.362 93.614,136.848 97.379 C 111.482 110.091,89.897 134.937,83.572 158.703 C 81.340 167.088,81.807 166.468,77.041 167.380 C 61.864 170.283,51.992 183.988,53.902 199.501 C 56.554 221.039,79.977 231.776,97.800 219.623 C 100.390 217.858,101.148 218.288,109.107 226.051 C 112.123 228.993,118.104 234.718,122.396 238.773 C 136.703 252.289,157.676 272.464,168.800 283.412 C 193.198 307.422,191.600 306.951,191.600 290.132 C 191.600 276.617,192.303 278.297,183.076 269.754 C 179.074 266.050,173.100 260.403,169.800 257.206 C 152.354 240.305,126.071 215.768,118.900 209.687 C 112.913 204.610,113.002 203.600,119.439 203.600 C 124.458 203.600,123.625 202.945,146.400 224.813 C 156.432 234.446,184.913 261.083,187.131 262.906 C 188.744 264.232,190.140 264.307,190.977 263.111 C 191.757 261.998,191.910 240.609,191.154 238.441 C 190.843 237.548,186.907 233.651,178.064 225.482 C 171.109 219.057,161.901 210.470,157.601 206.400 C 130.772 181.003,133.628 182.801,120.113 182.798 C 108.572 182.795,107.728 182.643,106.190 180.295 C 105.579 179.363,104.387 177.765,103.540 176.744 C 101.353 174.109,101.580 172.225,105.414 161.214 C 110.220 147.411,123.241 131.324,137.122 122.039 C 142.793 118.246,142.880 118.320,143.617 127.600 C 144.165 134.497,144.494 135.975,145.831 137.564 C 148.718 140.995,164.293 154.866,168.035 157.338 C 171.001 159.299,171.097 159.609,171.258 167.800 L 171.400 175.000 170.391 175.118 C 169.352 175.239,168.130 174.236,155.600 162.988 C 146.451 154.774,146.415 154.792,146.406 167.374 C 146.398 177.378,146.311 177.162,152.725 183.041 C 155.296 185.398,162.980 192.839,169.800 199.577 C 186.844 216.415,189.539 218.632,191.083 217.089 C 191.821 216.350,191.904 143.073,191.169 140.307 C 190.748 138.721,188.868 136.941,181.891 131.521 C 177.083 127.786,177.316 128.582,177.145 115.316 C 176.974 102.010,177.011 101.865,180.169 103.540 C 181.949 104.484,190.147 110.565,195.603 114.988 C 201.202 119.527,201.152 119.538,211.000 111.770 C 225.508 100.327,224.801 100.121,224.799 115.789 C 224.797 128.923,225.406 127.510,217.049 133.744 C 213.333 136.517,210.578 138.869,210.206 139.588 C 209.327 141.288,209.464 215.873,210.349 216.939 C 211.337 218.129,212.667 217.697,215.490 215.267 C 220.519 210.939,254.358 177.012,254.781 175.874 C 255.021 175.230,255.200 171.366,255.200 166.850 C 255.200 155.283,255.028 155.217,246.354 163.451 C 229.890 179.083,230.280 178.979,230.478 167.675 L 230.600 160.751 232.825 158.675 C 234.049 157.534,239.609 152.640,245.181 147.800 C 258.191 136.499,257.349 137.830,257.600 128.192 C 257.872 117.768,258.155 117.500,264.398 121.757 C 280.818 132.953,294.071 151.631,298.395 169.666 C 299.567 174.555,299.471 175.700,297.632 178.777 C 295.294 182.688,295.800 182.541,283.600 182.833 C 268.676 183.189,270.007 182.534,255.598 196.600 C 241.539 210.324,220.442 230.367,213.874 236.239 C 210.063 239.646,210.039 239.746,210.018 251.811 C 209.988 268.689,207.579 269.686,238.600 239.988 C 245.860 233.037,253.420 225.843,255.400 224.001 C 257.380 222.158,262.638 217.143,267.084 212.856 C 277.566 202.749,276.364 203.431,283.996 203.266 C 291.983 203.093,294.578 204.056,291.144 205.919 C 286.213 208.593,283.338 210.950,270.789 222.600 C 253.587 238.571,248.612 243.231,236.631 254.600 C 229.675 261.200,221.173 269.135,217.737 272.234 C 209.547 279.622,210.225 277.937,210.077 291.277 C 209.892 307.953,208.647 308.155,228.818 288.230 C 237.299 279.854,247.185 270.210,250.789 266.800 C 254.393 263.390,262.038 256.100,267.779 250.600 C 273.519 245.100,281.812 237.328,286.208 233.330 C 290.604 229.331,295.906 224.336,297.992 222.230 C 302.395 217.783,302.364 217.790,306.390 220.212 C 318.422 227.448,332.107 225.977,341.610 216.427 C 358.596 199.358,348.454 170.576,324.275 167.233 C 320.283 166.681,319.720 166.355,319.199 164.293 C 311.934 135.542,293.136 112.391,265.400 98.035 C 258.548 94.489,258.194 94.161,257.370 90.600 C 252.742 70.588,245.269 59.488,223.010 39.562 C 219.715 36.613,213.799 31.140,209.864 27.400 C 205.928 23.660,202.504 20.487,202.254 20.348 C 201.075 19.695,200.089 19.679,198.839 20.292 M143.908 97.100 C 144.655 98.656,144.148 116.139,143.340 116.693 C 142.933 116.972,140.530 118.579,138.000 120.265 C 122.274 130.743,108.851 147.260,104.084 162.000 C 100.488 173.121,100.329 174.045,101.700 175.899 C 102.195 176.568,103.230 177.988,104.000 179.055 C 104.770 180.122,105.967 181.581,106.660 182.297 L 107.920 183.600 118.460 183.602 C 124.257 183.603,129.631 183.780,130.402 183.994 C 132.795 184.659,140.558 191.455,159.400 209.382 C 169.497 218.988,176.987 225.951,183.854 232.113 C 191.185 238.692,190.800 237.678,190.800 250.382 C 190.800 261.039,190.604 262.400,189.068 262.400 C 188.088 262.400,179.706 254.988,166.138 242.125 C 129.936 207.804,126.152 204.289,124.468 203.428 C 123.342 202.852,122.152 202.766,116.808 202.873 C 109.414 203.021,109.530 202.967,107.310 207.400 C 104.829 212.354,102.508 215.504,100.468 216.687 C 99.441 217.283,97.770 218.361,96.756 219.082 C 80.253 230.824,57.174 219.852,54.839 199.155 C 53.144 184.135,62.954 170.734,77.505 168.193 C 82.640 167.296,82.369 167.597,84.005 160.981 C 88.407 143.179,100.534 125.097,117.376 111.220 C 129.082 101.576,142.602 94.380,143.908 97.100 M265.106 98.956 C 289.678 111.284,310.292 135.227,316.800 159.000 C 319.221 167.845,319.324 168.000,322.755 168.000 C 341.064 168.000,354.787 190.806,346.653 207.717 C 337.965 225.780,318.708 228.914,300.717 215.193 C 299.152 214.000,295.690 208.059,295.184 205.698 C 294.440 202.230,294.294 202.179,285.454 202.333 C 275.901 202.498,276.642 202.162,268.600 209.990 C 265.080 213.417,254.853 223.236,245.873 231.810 C 213.391 262.826,213.299 262.909,212.067 262.135 C 211.125 261.543,210.781 255.964,211.138 247.066 L 211.424 239.932 213.832 237.666 C 215.157 236.420,221.979 230.000,228.993 223.400 C 236.007 216.800,242.850 210.320,244.199 209.000 C 252.851 200.533,264.967 188.967,267.000 187.233 C 270.470 184.273,271.484 184.066,284.268 183.706 C 296.714 183.356,295.831 183.634,298.570 179.196 C 301.216 174.909,300.535 170.752,294.891 156.726 C 289.466 143.245,273.612 125.440,260.510 118.113 C 257.069 116.190,257.200 116.652,257.200 106.404 C 257.200 94.635,256.954 94.866,265.106 98.956 M94.542 239.988 C 88.705 243.336,87.313 249.481,91.173 254.864 C 92.016 256.039,100.242 264.286,109.453 273.191 C 118.664 282.096,130.124 293.256,134.920 297.991 C 139.716 302.726,147.096 309.920,151.320 313.979 C 167.856 329.866,176.400 338.582,176.400 339.564 C 176.400 340.083,175.587 342.224,174.594 344.321 C 159.581 376.013,200.820 403.144,223.400 376.431 C 231.126 367.291,232.479 354.100,226.759 343.679 C 224.637 339.812,224.172 340.562,234.863 330.586 C 239.778 325.998,249.830 316.290,257.200 309.011 C 271.775 294.617,292.062 274.894,303.303 264.192 C 311.921 255.987,313.230 254.181,313.829 249.667 C 314.735 242.839,307.280 237.263,300.317 239.561 C 297.186 240.595,292.565 244.871,261.070 275.871 C 212.806 323.379,209.286 326.767,208.121 326.853 C 207.724 326.882,204.701 326.861,201.403 326.807 L 195.407 326.708 186.603 318.009 C 170.650 302.244,152.336 284.354,141.988 274.425 C 136.385 269.049,127.030 260.009,121.200 254.336 C 106.740 240.265,104.694 238.808,99.400 238.808 C 97.031 238.808,96.283 238.989,94.542 239.988 M102.905 240.172 C 105.874 241.232,109.144 243.944,118.608 253.200 C 123.894 258.370,134.588 268.720,142.373 276.200 C 158.713 291.901,175.649 308.426,186.744 319.494 C 196.088 328.816,194.588 328.000,202.392 328.000 L 208.836 328.000 214.118 323.100 C 219.487 318.119,231.032 306.844,256.200 282.001 C 301.013 237.767,298.265 240.190,303.583 240.213 C 311.285 240.247,314.984 246.294,311.655 253.407 C 310.584 255.697,309.605 256.851,305.098 261.146 C 302.184 263.922,296.830 269.076,293.200 272.599 C 289.570 276.122,280.660 284.747,273.400 291.764 C 266.140 298.782,257.500 307.247,254.200 310.576 C 250.900 313.904,243.070 321.476,236.800 327.402 C 222.384 341.028,223.235 339.764,225.722 343.859 C 237.791 363.736,218.014 391.112,195.400 385.831 C 176.322 381.375,167.210 362.209,175.655 344.295 C 177.052 341.332,177.611 339.699,177.450 339.055 C 177.205 338.081,151.114 312.261,117.798 280.023 C 94.459 257.439,91.871 254.812,90.822 252.646 C 87.324 245.420,95.103 237.388,102.905 240.172 "
              stroke="none" fill="#2CADD4" fill-rule="evenodd"></path>
    </g>
</svg>